<?xml version="1.0" standalone="no"?>
<!DOCTYPE svg PUBLIC "-//W3C//DTD SVG 20010904//EN"
 "http://www.w3.org/TR/2001/REC-SVG-20010904/DTD/svg10.dtd">
<svg version="1.0" xmlns="http://www.w3.org/2000/svg"
 width="2000.000000pt" height="313.000000pt" viewBox="0 0 2000.000000 313.000000"
 preserveAspectRatio="xMidYMid meet">

<g transform="translate(0.000000,313.000000) scale(0.100000,-0.100000)"
fill="#000000" stroke="none">
<path d="M7550 2919 c-276 -21 -517 -167 -661 -403 -51 -85 -54 -87 -60 -60
-4 16 -13 109 -19 207 l-13 177 -133 0 -134 0 0 -990 0 -990 144 0 144 0 5
513 c4 480 5 518 26 610 64 290 193 484 388 585 123 64 213 85 363 85 108 0
136 -4 207 -27 179 -58 294 -189 339 -383 10 -43 19 -80 20 -82 2 -1 59 16
128 39 l125 41 -6 37 c-12 75 -55 208 -90 274 -44 85 -144 194 -226 248 -145
94 -331 135 -547 119z"/>
<path d="M1405 2900 c-140 -21 -211 -39 -332 -81 -220 -78 -418 -218 -513
-365 -29 -44 -46 -61 -50 -52 -4 7 -13 109 -20 226 l-13 212 -129 0 -128 0 0
-1400 0 -1400 145 0 145 0 0 640 c0 352 4 640 8 640 5 0 18 -18 30 -39 37 -66
160 -188 247 -246 247 -165 544 -245 904 -245 752 0 1281 326 1397 862 9 42
16 122 16 188 1 197 -40 349 -136 515 -57 98 -226 264 -338 333 -169 104 -415
186 -655 217 -156 21 -425 18 -578 -5z m555 -264 c289 -46 521 -154 672 -314
118 -125 175 -261 185 -436 19 -362 -224 -645 -661 -771 -166 -48 -256 -59
-496 -59 -195 0 -240 3 -339 22 -442 89 -723 305 -795 612 -21 85 -20 255 0
334 86 340 433 570 944 625 112 13 371 5 490 -13z"/>
<path d="M4500 2909 c-563 -64 -989 -372 -1112 -804 -32 -111 -31 -331 1 -450
114 -425 516 -734 1088 -836 169 -30 491 -37 668 -15 424 55 782 191 1043 398
34 27 62 54 62 59 0 5 -37 54 -81 109 l-82 100 -43 -40 c-134 -123 -403 -249
-659 -308 -300 -69 -702 -71 -966 -3 -120 31 -282 95 -370 148 -100 59 -220
168 -271 247 -34 54 -78 166 -78 202 0 12 180 14 1200 14 l1200 0 6 26 c11 42
-4 263 -21 329 -51 195 -142 346 -284 477 -198 181 -485 305 -798 343 -126 16
-380 18 -503 4z m440 -284 c302 -36 517 -125 675 -280 67 -66 89 -96 123 -165
22 -47 43 -101 47 -120 4 -19 9 -43 11 -52 5 -17 -50 -18 -1050 -18 l-1056 0
0 23 c1 37 43 150 80 211 47 78 169 191 265 245 247 141 571 197 905 156z"/>
<path d="M9560 2906 c-245 -38 -395 -92 -536 -192 -160 -113 -234 -268 -214
-446 25 -217 181 -353 498 -433 137 -35 244 -49 622 -85 458 -43 613 -69 744
-129 194 -88 233 -254 90 -380 -129 -114 -361 -177 -684 -188 -197 -6 -324 5
-500 44 -342 75 -610 249 -705 455 l-25 55 -116 -59 c-63 -33 -118 -66 -120
-73 -8 -21 61 -144 121 -218 198 -240 585 -410 1042 -458 164 -17 478 -7 628
20 149 27 318 83 421 142 94 53 217 171 257 246 96 182 55 429 -92 555 -163
139 -374 194 -978 253 -516 51 -654 73 -766 123 -52 23 -113 75 -133 113 -21
41 -18 132 6 178 45 88 178 165 362 209 103 24 131 26 318 27 223 0 292 -10
453 -64 184 -63 341 -163 423 -271 21 -28 42 -50 47 -50 8 0 162 106 199 138
16 13 16 17 2 44 -25 49 -154 172 -232 223 -143 92 -312 159 -511 202 -98 21
-149 25 -326 28 -142 3 -238 0 -295 -9z"/>
<path d="M12475 2905 c-703 -93 -1160 -551 -1105 -1109 39 -399 318 -716 783
-890 504 -188 1208 -146 1726 105 134 64 257 141 333 209 l48 42 -81 99 c-45
54 -86 99 -91 99 -6 0 -33 -20 -60 -45 -169 -152 -493 -279 -839 -330 -124
-18 -422 -20 -549 -5 -505 63 -866 302 -935 618 l-7 32 1207 0 1207 0 -5 153
c-6 199 -38 313 -131 472 -52 89 -216 255 -316 320 -192 125 -429 206 -682
234 -128 14 -378 12 -503 -4z m443 -276 c301 -32 535 -126 695 -279 101 -95
160 -201 181 -322 l7 -38 -1056 0 -1056 0 7 38 c71 401 612 668 1222 601z"/>
<path d="M18305 2904 c-273 -42 -493 -138 -617 -270 -49 -53 -97 -145 -114
-220 -32 -146 10 -291 114 -393 93 -91 238 -158 435 -200 125 -27 194 -35 613
-76 390 -37 561 -67 680 -116 164 -68 231 -187 173 -306 -76 -156 -356 -257
-749 -270 -335 -11 -607 43 -850 168 -173 90 -298 206 -359 336 l-23 51 -117
-61 c-64 -33 -118 -62 -120 -64 -8 -6 20 -73 55 -133 138 -236 474 -433 880
-515 167 -34 280 -45 484 -45 360 0 649 71 851 208 171 116 251 251 251 423 0
239 -124 384 -412 482 -120 41 -329 75 -659 107 -507 49 -633 67 -753 106
-145 47 -211 115 -211 218 0 139 132 244 383 303 105 25 133 27 320 28 164 0
222 -4 290 -19 255 -56 477 -176 585 -317 20 -27 41 -49 45 -49 10 0 208 138
215 150 9 15 -88 132 -154 187 -181 149 -467 261 -746 293 -124 14 -381 11
-490 -6z"/>
<path d="M14520 2246 c0 -652 3 -691 60 -848 120 -328 408 -535 825 -595 150
-21 458 -13 596 17 182 38 359 109 487 194 104 69 239 213 287 305 9 18 20 30
23 26 4 -4 14 -113 22 -243 l15 -237 133 -3 132 -3 0 991 0 990 -144 0 -144 0
-5 -497 c-4 -520 -6 -541 -52 -678 -107 -315 -374 -520 -770 -591 -128 -23
-380 -23 -515 -1 -290 49 -492 187 -592 405 -61 134 -61 132 -65 775 l-4 587
-145 0 -144 0 0 -594z"/>
</g>
</svg>
